<?xml version="1.0" encoding="UTF-8"?>
<svg width="32px" height="32px" viewBox="0 0 32 32" version="1.1" xmlns="http://www.w3.org/2000/svg" xmlns:xlink="http://www.w3.org/1999/xlink">
    <title>icon_添加</title>
    <g id="页面-v2" stroke="none" stroke-width="1" fill="none" fill-rule="evenodd">
        <g id="个人中心-我的草稿箱-hover我的头像修改弹窗" transform="translate(-608.000000, -445.000000)" fill="#C61823" fill-rule="nonzero">
            <g id="编组-4" transform="translate(493.000000, 445.000000)">
                <g id="icon_添加" transform="translate(115.000000, 0.000000)">
                    <rect id="矩形" opacity="0" x="0" y="0" width="32" height="32"></rect>
                    <path d="M16,0 C7.16343366,0 0,7.16343366 0,16 C0,24.8365663 7.16343366,32 16,32 C24.8365663,32 32,24.8365663 32,16 C32,7.16343366 24.8365663,0 16,0 Z M25.6499443,16 C25.6473973,16.8658513 24.9461189,17.5671298 24.0802676,17.5696767 L17.5696767,17.5696767 L17.5696767,24.0802676 C17.5671298,24.9461189 16.8658513,25.6473973 16,25.6499443 C15.1341487,25.6473973 14.4328702,24.9461189 14.4303233,24.0802676 L14.4303233,17.5696767 L7.91973244,17.5696767 C7.05388111,17.5671298 6.35260268,16.8658513 6.35005575,16 C6.35260268,15.1341487 7.05388111,14.4328702 7.91973244,14.4303233 L14.4303233,14.4303233 L14.4303233,7.91973244 C14.4328702,7.05388111 15.1341487,6.35260268 16,6.35005575 C16.8658513,6.35260268 17.5671298,7.05388111 17.5696767,7.91973244 L17.5696767,14.4303233 L24.0802676,14.4303233 C24.9461189,14.4328702 25.6473973,15.1341487 25.6499443,16 Z" id="形状"></path>
                </g>
            </g>
        </g>
    </g>
</svg>